<?xml version="1.0" standalone="no"?>
<!DOCTYPE svg PUBLIC "-//W3C//DTD SVG 20010904//EN"
 "http://www.w3.org/TR/2001/REC-SVG-20010904/DTD/svg10.dtd">
<svg version="1.0" xmlns="http://www.w3.org/2000/svg"
 width="1024.000000pt" height="1024.000000pt" viewBox="0 0 1024.000000 1024.000000"
 preserveAspectRatio="xMidYMid meet">

<g transform="translate(0.000000,1024.000000) scale(0.100000,-0.100000)"
fill="#000000" stroke="none">
<path d="M2038 8185 c-14 -8 -36 -30 -47 -48 l-21 -34 0 -2932 c0 -2688 1
-2935 16 -2960 35 -59 -11 -56 869 -59 446 -2 834 0 862 3 40 5 60 14 83 36
l30 31 0 1131 c0 1109 0 1131 19 1112 18 -19 198 -273 407 -575 655 -945 814
-1169 845 -1191 36 -25 115 -35 163 -19 48 16 80 49 172 183 43 61 93 135 113
162 19 28 145 208 279 400 677 968 735 1049 745 1038 3 -3 6 -505 7 -1115 0
-927 3 -1114 14 -1137 31 -58 -7 -56 915 -56 669 0 852 3 877 13 16 7 39 27
50 45 19 32 19 77 16 2961 -2 2632 -4 2931 -18 2955 -9 14 -28 35 -42 46 -27
20 -43 20 -927 20 l-900 0 -67 -33 c-79 -38 -112 -74 -276 -289 -64 -85 -166
-220 -227 -299 -60 -79 -164 -214 -230 -301 -357 -468 -546 -713 -554 -718 -9
-5 -130 147 -351 440 -58 77 -193 255 -300 395 -107 140 -228 300 -269 355
-247 330 -288 377 -381 426 l-45 24 -900 2 c-772 2 -904 0 -927 -12z m749
-482 c166 -224 911 -1267 1577 -2208 66 -93 156 -222 201 -285 45 -63 148
-209 230 -325 82 -115 185 -260 229 -322 45 -62 101 -142 126 -177 25 -36 50
-64 55 -63 10 4 145 188 439 603 508 716 616 868 756 1064 84 118 181 253 215
300 34 47 118 164 186 260 69 96 162 227 208 290 45 63 134 187 197 275 63 88
200 280 306 428 l191 267 171 -2 171 -3 -2 -213 -2 -213 -89 -127 c-49 -70
-134 -192 -189 -272 -190 -275 -252 -365 -329 -474 -43 -60 -83 -126 -90 -145
-11 -29 -13 -413 -14 -1908 l0 -1873 -160 0 -160 0 0 1631 0 1631 -61 -83
c-33 -46 -121 -172 -196 -279 -75 -107 -235 -337 -356 -510 -121 -173 -296
-425 -390 -560 -94 -135 -191 -274 -217 -310 -67 -94 -162 -230 -375 -535
-103 -148 -192 -275 -199 -282 -8 -9 -33 18 -102 115 -80 111 -413 586 -572
817 -31 44 -103 148 -161 230 -57 83 -218 312 -356 510 -413 591 -596 856
-602 871 -3 8 -9 14 -14 14 -5 0 -9 -680 -9 -1630 l0 -1630 -154 0 -153 0 -7
31 c-3 17 -6 868 -6 1891 l0 1860 -107 156 c-158 232 -183 269 -449 652 l-149
215 -3 160 c-2 88 -1 184 3 213 l6 52 163 0 163 0 80 -107z m904 81 c25 -12
63 -36 84 -55 21 -19 219 -275 439 -569 220 -294 532 -712 693 -928 242 -323
297 -391 308 -382 8 7 98 125 201 263 342 461 408 549 797 1068 212 284 401
530 420 546 19 16 56 41 83 54 46 23 60 24 267 27 l218 3 -12 -23 c-7 -13 -58
-86 -114 -163 -56 -77 -145 -201 -198 -275 -53 -74 -146 -202 -206 -285 -61
-82 -147 -202 -192 -265 -45 -63 -112 -155 -149 -205 -37 -49 -127 -173 -200
-275 -74 -102 -160 -221 -192 -265 -211 -291 -469 -648 -586 -812 -75 -106
-139 -193 -143 -193 -8 0 -456 615 -728 1001 -14 21 -82 114 -151 209 -69 94
-140 192 -158 218 -49 69 -252 348 -357 492 -160 219 -489 675 -559 773 l-48
68 218 -3 c198 -3 223 -5 265 -24z m4357 -3170 l-3 -2029 -152 -3 -153 -3 0
1836 0 1836 118 162 c65 89 131 182 147 205 15 24 32 39 37 34 4 -4 7 -921 6
-2038z m-5509 1827 l141 -199 0 -1831 0 -1831 -150 0 -150 0 0 1108 c0 609 -2
1517 -3 2017 -2 501 -2 918 1 927 2 10 8 16 12 13 5 -3 72 -95 149 -204z"/>
</g>
</svg>
